<svg width="current" height="32" viewBox="0 0 399 32" fill="none" xmlns="http://www.w3.org/2000/svg">
<rect width="399" height="32" rx="8" fill="#BAEDE1"/>
<path d="M14 18.78L11.22 16L10.2733 16.94L14 20.6667L22 12.6667L21.06 11.7267L14 18.78Z" fill="#191D21"/>
<path d="M34.976 10.808H36.272V12.428C36.272 15.176 35.312 17.756 33.212 18.788L32.252 17.504C34.124 16.628 34.976 14.492 34.976 12.428V10.808ZM35.3 10.808H36.572V12.428C36.572 14.42 37.364 16.448 39.14 17.312L38.18 18.584C36.176 17.564 35.3 15.092 35.3 12.428V10.808ZM39.584 9.956H41.192V21.068H39.584V9.956ZM40.832 14.228H42.8V15.56H40.832V14.228ZM45.7751 13.676H47.3711V15.716H45.7751V13.676ZM49.6871 13.676H51.2711V15.716H49.6871V13.676ZM43.5191 15.224H53.5631V16.484H43.5191V15.224ZM48.5231 17.048C50.9231 17.048 52.3751 17.768 52.3751 19.052C52.3751 20.348 50.9231 21.068 48.5231 21.068C46.1111 21.068 44.6591 20.348 44.6591 19.052C44.6591 17.768 46.1111 17.048 48.5231 17.048ZM48.5231 18.248C47.0351 18.248 46.2791 18.5 46.2791 19.052C46.2791 19.616 47.0351 19.868 48.5231 19.868C50.0111 19.868 50.7671 19.616 50.7671 19.052C50.7671 18.5 50.0111 18.248 48.5231 18.248ZM48.5471 10.112C50.9951 10.112 52.5671 10.928 52.5671 12.26C52.5671 13.58 50.9951 14.372 48.5471 14.372C46.0871 14.372 44.5271 13.58 44.5271 12.26C44.5271 10.928 46.0871 10.112 48.5471 10.112ZM48.5471 11.336C47.0231 11.336 46.1711 11.636 46.1711 12.26C46.1711 12.872 47.0231 13.172 48.5471 13.172C50.0711 13.172 50.9231 12.872 50.9231 12.26C50.9231 11.636 50.0711 11.336 48.5471 11.336ZM61.6621 9.944H63.2701V21.056H61.6621V9.944ZM62.8501 14.192H64.8061V15.5H62.8501V14.192ZM58.7461 11.096H60.3061C60.3061 14.432 59.0341 17.288 55.3381 19.148L54.4501 17.936C57.3661 16.424 58.7461 14.384 58.7461 11.372V11.096ZM55.0621 11.096H59.5621V12.38H55.0621V11.096ZM66.8692 12.716H74.5372V13.988H66.8692V12.716ZM66.8692 10.136H68.4532V13.292H66.8692V10.136ZM65.6092 14.936H75.6652V16.208H65.6092V14.936ZM70.6012 16.916C73.0012 16.916 74.4532 17.66 74.4532 18.98C74.4532 20.288 73.0012 21.044 70.6012 21.044C68.2012 21.044 66.7372 20.288 66.7372 18.98C66.7372 17.66 68.2012 16.916 70.6012 16.916ZM70.6012 18.14C69.1132 18.14 68.3572 18.404 68.3572 18.98C68.3572 19.544 69.1132 19.82 70.6012 19.82C72.0892 19.82 72.8452 19.544 72.8452 18.98C72.8452 18.404 72.0892 18.14 70.6012 18.14ZM83.7883 9.968H85.3843V18.272H83.7883V9.968ZM84.9283 13.352H86.8603V14.66H84.9283V13.352ZM76.6363 11.12H83.1763V12.368H76.6363V11.12ZM79.9123 12.764C81.5083 12.764 82.6363 13.64 82.6363 14.912C82.6363 16.184 81.5083 17.048 79.9123 17.048C78.3043 17.048 77.1763 16.184 77.1763 14.912C77.1763 13.64 78.3043 12.764 79.9123 12.764ZM79.9123 13.976C79.2043 13.976 78.7123 14.312 78.7123 14.912C78.7123 15.512 79.2043 15.836 79.9123 15.836C80.6203 15.836 81.1123 15.512 81.1123 14.912C81.1123 14.312 80.6203 13.976 79.9123 13.976ZM79.1083 9.944H80.7043V11.732H79.1083V9.944ZM78.2203 19.604H85.7803V20.876H78.2203V19.604ZM78.2203 17.648H79.8163V20.156H78.2203V17.648ZM98.0727 9.944H99.6807V21.092H98.0727V9.944ZM93.6927 10.724C95.3727 10.724 96.6087 12.26 96.6087 14.684C96.6087 17.132 95.3727 18.668 93.6927 18.668C92.0127 18.668 90.7767 17.132 90.7767 14.684C90.7767 12.26 92.0127 10.724 93.6927 10.724ZM93.6927 12.176C92.8647 12.176 92.3007 13.052 92.3007 14.684C92.3007 16.34 92.8647 17.228 93.6927 17.228C94.5207 17.228 95.0727 16.34 95.0727 14.684C95.0727 13.052 94.5207 12.176 93.6927 12.176ZM101.804 11.096H106.196V18.296H101.804V11.096ZM104.708 12.344H103.292V17.048H104.708V12.344ZM109.52 9.956H111.044V21.068H109.52V9.956ZM105.392 13.988H107.888V15.272H105.392V13.988ZM107.252 10.124H108.752V20.564H107.252V10.124ZM115.663 10.28C117.355 10.28 118.627 11.336 118.627 12.824C118.627 14.3 117.355 15.356 115.663 15.356C113.971 15.356 112.699 14.3 112.699 12.824C112.699 11.336 113.971 10.28 115.663 10.28ZM115.663 11.576C114.847 11.576 114.235 12.032 114.235 12.824C114.235 13.616 114.847 14.072 115.663 14.072C116.479 14.072 117.079 13.616 117.079 12.824C117.079 12.032 116.479 11.576 115.663 11.576ZM120.163 9.956H121.771V15.512H120.163V9.956ZM114.355 15.968H121.771V19.016H115.939V20.36H114.379V17.864H120.187V17.204H114.355V15.968ZM114.379 19.712H122.047V20.948H114.379V19.712ZM131.19 9.944H132.798V21.092H131.19V9.944ZM126.81 10.724C128.49 10.724 129.726 12.26 129.726 14.684C129.726 17.132 128.49 18.668 126.81 18.668C125.13 18.668 123.894 17.132 123.894 14.684C123.894 12.26 125.13 10.724 126.81 10.724ZM126.81 12.176C125.982 12.176 125.418 13.052 125.418 14.684C125.418 16.34 125.982 17.228 126.81 17.228C127.638 17.228 128.19 16.34 128.19 14.684C128.19 13.052 127.638 12.176 126.81 12.176ZM139.049 14.048H140.873V15.332H139.049V14.048ZM142.637 9.956H144.161V21.068H142.637V9.956ZM140.369 10.124H141.869V20.564H140.369V10.124ZM137.105 10.736C138.581 10.736 139.529 12.26 139.529 14.768C139.529 17.288 138.581 18.812 137.105 18.812C135.641 18.812 134.705 17.288 134.705 14.768C134.705 12.26 135.641 10.736 137.105 10.736ZM137.105 12.236C136.505 12.236 136.157 13.076 136.157 14.768C136.157 16.472 136.505 17.3 137.105 17.3C137.729 17.3 138.077 16.472 138.077 14.768C138.077 13.076 137.729 12.236 137.105 12.236ZM147.868 15.596H149.452V18.716H147.868V15.596ZM151.9 15.596H153.496V18.716H151.9V15.596ZM145.66 18.488H155.716V19.784H145.66V18.488ZM150.676 10.496C153.064 10.496 154.828 11.672 154.828 13.484C154.828 15.296 153.064 16.46 150.676 16.46C148.276 16.46 146.524 15.296 146.524 13.484C146.524 11.672 148.276 10.496 150.676 10.496ZM150.676 11.744C149.128 11.744 148.096 12.38 148.096 13.484C148.096 14.576 149.128 15.224 150.676 15.224C152.224 15.224 153.256 14.576 153.256 13.484C153.256 12.38 152.224 11.744 150.676 11.744ZM157.993 20.1108C157.711 20.1108 157.47 20.0114 157.268 19.8125C157.069 19.6108 156.97 19.3693 156.97 19.0881C156.97 18.8097 157.069 18.571 157.268 18.3722C157.47 18.1733 157.711 18.0739 157.993 18.0739C158.265 18.0739 158.504 18.1733 158.708 18.3722C158.913 18.571 159.015 18.8097 159.015 19.0881C159.015 19.2756 158.967 19.4474 158.87 19.6037C158.777 19.7571 158.653 19.8807 158.5 19.9744C158.346 20.0653 158.177 20.1108 157.993 20.1108Z" fill="#191D21"/>
<path d="M387.667 12.2733L386.727 11.3333L383 15.06L379.273 11.3333L378.333 12.2733L382.06 16L378.333 19.7267L379.273 20.6667L383 16.94L386.727 20.6667L387.667 19.7267L383.94 16L387.667 12.2733Z" fill="#191D21"/>
</svg>
