<svg width="current" height="32" viewBox="0 0 399 32" fill="none" xmlns="http://www.w3.org/2000/svg">
<rect width="399" height="32" rx="8" fill="#FFEACA"/>
<path d="M8.66667 22H23.3333L16 9.33333L8.66667 22ZM16.6667 20H15.3333V18.6667H16.6667V20ZM16.6667 17.3333H15.3333V14.6667H16.6667V17.3333Z" fill="#191D21"/>
<path d="M36.704 15.536H38.3V17.492H36.704V15.536ZM32.48 15.008H42.524V16.268H32.48V15.008ZM37.484 17.06C39.884 17.06 41.336 17.78 41.336 19.064C41.336 20.348 39.884 21.068 37.484 21.068C35.072 21.068 33.62 20.348 33.62 19.064C33.62 17.78 35.072 17.06 37.484 17.06ZM37.484 18.26C35.996 18.26 35.24 18.512 35.24 19.064C35.24 19.604 35.996 19.868 37.484 19.868C38.972 19.868 39.728 19.604 39.728 19.064C39.728 18.512 38.972 18.26 37.484 18.26ZM36.404 11H37.82V11.276C37.82 12.944 36.32 14.312 33.452 14.576L32.9 13.328C35.336 13.124 36.404 12.14 36.404 11.276V11ZM37.184 11H38.6V11.276C38.6 12.152 39.656 13.124 42.104 13.328L41.552 14.576C38.696 14.312 37.184 12.956 37.184 11.276V11ZM33.392 10.412H41.624V11.672H33.392V10.412ZM43.5191 15.44H53.5631V16.724H43.5191V15.44ZM47.7311 14.024H49.3271V15.716H47.7311V14.024ZM44.6351 17.48H52.3511V21.068H50.7551V18.74H44.6351V17.48ZM44.8031 10.232H46.3751V11.216H50.7071V10.232H52.2911V14.528H44.8031V10.232ZM46.3751 12.404V13.28H50.7071V12.404H46.3751ZM55.5301 13.352H60.9781V14.624H55.5301V13.352ZM57.4381 14.168H59.0341V16.292H57.4381V14.168ZM55.5301 10.628H60.9061V11.9H57.1261V13.88H55.5301V10.628ZM62.2141 9.944H63.8221V18.308H62.2141V9.944ZM56.2981 19.604H64.1221V20.876H56.2981V19.604ZM56.2981 17.72H57.8941V20.084H56.2981V17.72ZM54.8101 17.06L54.6181 15.8C56.7181 15.8 59.3221 15.776 61.5541 15.536L61.6621 16.676C59.3461 17.012 56.8501 17.06 54.8101 17.06ZM75.9945 9.944H77.6025V21.092H75.9945V9.944ZM71.6145 10.724C73.2945 10.724 74.5305 12.26 74.5305 14.684C74.5305 17.132 73.2945 18.668 71.6145 18.668C69.9345 18.668 68.6985 17.132 68.6985 14.684C68.6985 12.26 69.9345 10.724 71.6145 10.724ZM71.6145 12.176C70.7865 12.176 70.2225 13.052 70.2225 14.684C70.2225 16.34 70.7865 17.228 71.6145 17.228C72.4425 17.228 72.9945 16.34 72.9945 14.684C72.9945 13.052 72.4425 12.176 71.6145 12.176ZM79.7256 11.096H84.1176V18.296H79.7256V11.096ZM82.6296 12.344H81.2136V17.048H82.6296V12.344ZM87.4416 9.956H88.9656V21.068H87.4416V9.956ZM83.3136 13.988H85.8096V15.272H83.3136V13.988ZM85.1736 10.124H86.6736V20.564H85.1736V10.124ZM93.5847 10.28C95.2767 10.28 96.5487 11.336 96.5487 12.824C96.5487 14.3 95.2767 15.356 93.5847 15.356C91.8927 15.356 90.6207 14.3 90.6207 12.824C90.6207 11.336 91.8927 10.28 93.5847 10.28ZM93.5847 11.576C92.7687 11.576 92.1567 12.032 92.1567 12.824C92.1567 13.616 92.7687 14.072 93.5847 14.072C94.4007 14.072 95.0007 13.616 95.0007 12.824C95.0007 12.032 94.4007 11.576 93.5847 11.576ZM98.0847 9.956H99.6927V15.512H98.0847V9.956ZM92.2767 15.968H99.6927V19.016H93.8607V20.36H92.3007V17.864H98.1087V17.204H92.2767V15.968ZM92.3007 19.712H99.9687V20.948H92.3007V19.712ZM109.112 9.944H110.72V21.092H109.112V9.944ZM104.732 10.724C106.412 10.724 107.648 12.26 107.648 14.684C107.648 17.132 106.412 18.668 104.732 18.668C103.052 18.668 101.816 17.132 101.816 14.684C101.816 12.26 103.052 10.724 104.732 10.724ZM104.732 12.176C103.904 12.176 103.34 13.052 103.34 14.684C103.34 16.34 103.904 17.228 104.732 17.228C105.56 17.228 106.112 16.34 106.112 14.684C106.112 13.052 105.56 12.176 104.732 12.176ZM116.971 14.048H118.795V15.332H116.971V14.048ZM120.559 9.956H122.083V21.068H120.559V9.956ZM118.291 10.124H119.791V20.564H118.291V10.124ZM115.027 10.736C116.503 10.736 117.451 12.26 117.451 14.768C117.451 17.288 116.503 18.812 115.027 18.812C113.563 18.812 112.627 17.288 112.627 14.768C112.627 12.26 113.563 10.736 115.027 10.736ZM115.027 12.236C114.427 12.236 114.079 13.076 114.079 14.768C114.079 16.472 114.427 17.3 115.027 17.3C115.651 17.3 115.999 16.472 115.999 14.768C115.999 13.076 115.651 12.236 115.027 12.236ZM125.79 15.596H127.374V18.716H125.79V15.596ZM129.822 15.596H131.418V18.716H129.822V15.596ZM123.582 18.488H133.638V19.784H123.582V18.488ZM128.598 10.496C130.986 10.496 132.75 11.672 132.75 13.484C132.75 15.296 130.986 16.46 128.598 16.46C126.198 16.46 124.446 15.296 124.446 13.484C124.446 11.672 126.198 10.496 128.598 10.496ZM128.598 11.744C127.05 11.744 126.018 12.38 126.018 13.484C126.018 14.576 127.05 15.224 128.598 15.224C130.146 15.224 131.178 14.576 131.178 13.484C131.178 12.38 130.146 11.744 128.598 11.744ZM135.914 20.1108C135.633 20.1108 135.392 20.0114 135.19 19.8125C134.991 19.6108 134.892 19.3693 134.892 19.0881C134.892 18.8097 134.991 18.571 135.19 18.3722C135.392 18.1733 135.633 18.0739 135.914 18.0739C136.187 18.0739 136.426 18.1733 136.63 18.3722C136.835 18.571 136.937 18.8097 136.937 19.0881C136.937 19.2756 136.889 19.4474 136.792 19.6037C136.699 19.7571 136.575 19.8807 136.422 19.9744C136.268 20.0653 136.099 20.1108 135.914 20.1108Z" fill="#191D21"/>
<path d="M387.667 12.2733L386.727 11.3333L383 15.06L379.273 11.3333L378.333 12.2733L382.06 16L378.333 19.7267L379.273 20.6667L383 16.94L386.727 20.6667L387.667 19.7267L383.94 16L387.667 12.2733Z" fill="#191D21"/>
</svg>
