<svg width="320" height="47" viewBox="0 0 320 47" fill="none" xmlns="http://www.w3.org/2000/svg">
<rect width="320" height="47" rx="8" fill="#FFCACA"/>
<path d="M8.6665 29.5H23.3332L15.9998 16.8333L8.6665 29.5ZM16.6665 27.5H15.3332V26.1667H16.6665V27.5ZM16.6665 24.8333H15.3332V22.1667H16.6665V24.8333Z" fill="#191D21"/>
<path d="M40.112 9.456V15.432H41.72V9.456H40.112ZM34.328 15.912V20.448H41.72V15.912H40.136V16.944H35.9V15.912H34.328ZM35.9 18.168H40.136V19.176H35.9V18.168ZM35.672 9.912C33.944 9.912 32.648 11.004 32.648 12.54C32.648 14.076 33.944 15.168 35.672 15.168C37.4 15.168 38.684 14.076 38.684 12.54C38.684 11.004 37.4 9.912 35.672 9.912ZM35.672 11.232C36.512 11.232 37.124 11.724 37.124 12.54C37.124 13.368 36.512 13.848 35.672 13.848C34.82 13.848 34.208 13.368 34.208 12.54C34.208 11.724 34.82 11.232 35.672 11.232ZM43.9391 14.748V16.02H44.7911C46.9151 16.02 48.0551 15.984 49.3511 15.744L49.1951 14.484C47.9351 14.712 46.8551 14.748 44.7911 14.748H43.9391ZM43.9271 10.092V11.352H47.2271V12.408H43.9391V15.588H45.5231V13.596H48.8111V10.092H43.9271ZM51.2231 9.468V16.308H52.8191V9.468H51.2231ZM49.4471 10.992V12.264H51.5111V10.992H49.4471ZM49.4471 13.356V14.628H51.5111V13.356H49.4471ZM45.2111 16.812V18.084H51.2231V20.58H52.8191V16.812H45.2111ZM61.7101 9.468V17.772H63.3061V9.468H61.7101ZM62.8501 12.852V14.16H64.7821V12.852H62.8501ZM54.5581 10.62V11.868H61.0981V10.62H54.5581ZM57.8341 12.264C56.2261 12.264 55.0981 13.14 55.0981 14.412C55.0981 15.684 56.2261 16.548 57.8341 16.548C59.4301 16.548 60.5581 15.684 60.5581 14.412C60.5581 13.14 59.4301 12.264 57.8341 12.264ZM57.8341 13.476C58.5421 13.476 59.0341 13.812 59.0341 14.412C59.0341 15.012 58.5421 15.336 57.8341 15.336C57.1261 15.336 56.6341 15.012 56.6341 14.412C56.6341 13.812 57.1261 13.476 57.8341 13.476ZM57.0301 9.444V11.232H58.6261V9.444H57.0301ZM56.1421 19.104V20.376H63.7021V19.104H56.1421ZM56.1421 17.148V19.656H57.7381V17.148H56.1421ZM74.3985 12.144V13.44H76.5105V12.144H74.3985ZM76.0785 9.456V16.056H77.6745V9.456H76.0785ZM73.9065 16.296C71.5545 16.296 70.1025 17.1 70.1025 18.444C70.1025 19.8 71.5545 20.58 73.9065 20.58C76.2585 20.58 77.7105 19.8 77.7105 18.444C77.7105 17.1 76.2585 16.296 73.9065 16.296ZM73.9065 17.508C75.3585 17.508 76.1265 17.808 76.1265 18.444C76.1265 19.068 75.3585 19.368 73.9065 19.368C72.4665 19.368 71.6985 19.068 71.6985 18.444C71.6985 17.808 72.4665 17.508 73.9065 17.508ZM70.9425 10.572V11.268C70.9425 12.696 70.1505 14.172 68.3145 14.796L69.1305 16.056C71.2545 15.336 72.2385 13.392 72.2385 11.268V10.572H70.9425ZM71.2785 10.572V11.268C71.2785 13.248 72.2265 15.096 74.2905 15.78L75.0705 14.52C73.3185 13.932 72.5625 12.576 72.5625 11.268V10.572H71.2785ZM68.7465 10.128V11.4H74.7225V10.128H68.7465ZM79.4256 17.988V19.284H89.4816V17.988H79.4256ZM83.6376 15.612V18.3H85.2336V15.612H83.6376ZM80.4816 10.164V15.948H88.3896V10.164H86.8056V11.868H82.0656V10.164H80.4816ZM82.0656 13.116H86.8056V14.676H82.0656V13.116ZM90.4647 18.048V19.344H100.521V18.048H90.4647ZM94.6767 15.948V18.576H96.2727V15.948H94.6767ZM91.5927 10.176V11.436H97.8087V12.624H91.6167V15.744H93.2007V13.872H99.3927V10.176H91.5927ZM91.6167 15.108V16.392H99.6447V15.108H91.6167ZM111.373 9.444V20.556H112.981V9.444H111.373ZM112.561 13.692V15H114.517V13.692H112.561ZM108.457 10.596V10.872C108.457 13.884 107.077 15.924 104.161 17.436L105.049 18.648C108.745 16.788 110.017 13.932 110.017 10.596H108.457ZM104.773 10.596V11.88H109.273V10.596H104.773ZM122.94 9.456V15.432H124.548V9.456H122.94ZM117.156 15.912V20.448H124.548V15.912H122.964V16.944H118.728V15.912H117.156ZM118.728 18.168H122.964V19.176H118.728V18.168ZM118.5 9.912C116.772 9.912 115.476 11.004 115.476 12.54C115.476 14.076 116.772 15.168 118.5 15.168C120.228 15.168 121.512 14.076 121.512 12.54C121.512 11.004 120.228 9.912 118.5 9.912ZM118.5 11.232C119.34 11.232 119.952 11.724 119.952 12.54C119.952 13.368 119.34 13.848 118.5 13.848C117.648 13.848 117.036 13.368 117.036 12.54C117.036 11.724 117.648 11.232 118.5 11.232ZM127.319 12.852V14.124H132.767V12.852H127.319ZM129.227 13.668V15.792H130.823V13.668H129.227ZM127.319 10.128V13.38H128.915V11.4H132.695V10.128H127.319ZM134.003 9.444V17.808H135.611V9.444H134.003ZM128.087 19.104V20.376H135.911V19.104H128.087ZM128.087 17.22V19.584H129.683V17.22H128.087ZM126.599 16.56C128.639 16.56 131.135 16.512 133.451 16.176L133.343 15.036C131.111 15.276 128.507 15.3 126.407 15.3L126.599 16.56ZM142.984 16.212V18.012H144.58V16.212H142.984ZM147.844 9.456V20.568H149.44V9.456H147.844ZM140.416 18.72C142.384 18.72 144.964 18.708 147.376 18.264L147.268 17.112C144.928 17.424 142.24 17.424 140.224 17.436L140.416 18.72ZM140.44 10.68V11.928H147.124V10.68H140.44ZM143.776 12.372C142.156 12.372 141.016 13.212 141.016 14.448C141.016 15.696 142.156 16.536 143.776 16.536C145.42 16.536 146.56 15.696 146.56 14.448C146.56 13.212 145.42 12.372 143.776 12.372ZM143.776 13.572C144.52 13.572 145.036 13.884 145.036 14.448C145.036 15.024 144.52 15.336 143.776 15.336C143.056 15.336 142.54 15.024 142.54 14.448C142.54 13.884 143.056 13.572 143.776 13.572ZM142.984 9.504V11.4H144.58V9.504H142.984ZM154.095 15.156V17.592H155.691V15.156H154.095ZM158.967 9.456V17.868H160.563V9.456H158.967ZM152.559 19.104V20.376H160.803V19.104H152.559ZM152.559 17.076V19.44H154.155V17.076H152.559ZM151.359 15.636C153.363 15.636 155.967 15.576 158.331 15.18L158.235 14.04C155.907 14.34 153.195 14.364 151.167 14.364L151.359 15.636ZM156.867 15.912V17.004H159.315V15.912H156.867ZM154.743 9.84C153.111 9.84 151.971 10.644 151.971 11.82C151.971 13.008 153.111 13.8 154.743 13.8C156.363 13.8 157.503 13.008 157.503 11.82C157.503 10.644 156.363 9.84 154.743 9.84ZM154.743 11.004C155.475 11.004 155.991 11.28 155.991 11.82C155.991 12.36 155.475 12.636 154.743 12.636C153.999 12.636 153.483 12.36 153.483 11.82C153.483 11.28 153.999 11.004 154.743 11.004ZM169.862 9.444V20.592H171.47V9.444H169.862ZM165.482 10.224C163.802 10.224 162.566 11.76 162.566 14.184C162.566 16.632 163.802 18.168 165.482 18.168C167.162 18.168 168.398 16.632 168.398 14.184C168.398 11.76 167.162 10.224 165.482 10.224ZM165.482 11.676C166.31 11.676 166.862 12.552 166.862 14.184C166.862 15.84 166.31 16.728 165.482 16.728C164.654 16.728 164.09 15.84 164.09 14.184C164.09 12.552 164.654 11.676 165.482 11.676ZM177.282 15.96V20.448H181.338V15.96H179.862V17.052H178.758V15.96H177.282ZM178.758 18.204H179.862V19.248H178.758V18.204ZM183.054 15.876V16.704C183.054 17.748 182.514 18.816 181.182 19.368L181.962 20.556C183.606 19.92 184.266 18.336 184.266 16.704V15.876H183.054ZM183.426 15.876V16.704C183.426 18.456 184.05 19.956 185.73 20.556L186.522 19.368C185.166 18.912 184.638 17.856 184.638 16.704V15.876H183.426ZM181.674 11.832V13.128H184.458V11.832H181.674ZM179.13 9.876C177.45 9.876 176.19 10.956 176.19 12.492C176.19 14.028 177.45 15.12 179.13 15.12C180.798 15.12 182.058 14.028 182.058 12.492C182.058 10.956 180.798 9.876 179.13 9.876ZM179.13 11.184C179.946 11.184 180.534 11.676 180.534 12.492C180.534 13.308 179.946 13.812 179.13 13.812C178.314 13.812 177.714 13.308 177.714 12.492C177.714 11.676 178.314 11.184 179.13 11.184ZM183.762 9.456V15.336H185.358V9.456H183.762ZM190.145 10.224C188.477 10.224 187.277 11.76 187.277 14.184C187.277 16.632 188.477 18.168 190.145 18.168C191.801 18.168 193.013 16.632 193.013 14.184C193.013 11.76 191.801 10.224 190.145 10.224ZM190.145 11.676C190.961 11.676 191.489 12.552 191.489 14.184C191.489 15.84 190.961 16.728 190.145 16.728C189.341 16.728 188.801 15.84 188.801 14.184C188.801 12.552 189.341 11.676 190.145 11.676ZM194.837 9.444V20.592H196.421V9.444H194.837ZM192.545 13.452V14.736H195.509V13.452H192.545ZM200.356 15.096V18.216H201.94V15.096H200.356ZM204.388 15.096V18.216H205.984V15.096H204.388ZM198.148 17.988V19.284H208.204V17.988H198.148ZM203.164 9.996C200.764 9.996 199.012 11.172 199.012 12.984C199.012 14.796 200.764 15.96 203.164 15.96C205.552 15.96 207.316 14.796 207.316 12.984C207.316 11.172 205.552 9.996 203.164 9.996ZM203.164 11.244C204.712 11.244 205.744 11.88 205.744 12.984C205.744 14.076 204.712 14.724 203.164 14.724C201.616 14.724 200.584 14.076 200.584 12.984C200.584 11.88 201.616 11.244 203.164 11.244ZM210.481 19.6108C210.2 19.6108 209.958 19.5114 209.756 19.3125C209.558 19.1108 209.458 18.8693 209.458 18.5881C209.458 18.3097 209.558 18.071 209.756 17.8722C209.958 17.6733 210.2 17.5739 210.481 17.5739C210.754 17.5739 210.992 17.6733 211.197 17.8722C211.401 18.071 211.504 18.3097 211.504 18.5881C211.504 18.7756 211.455 18.9474 211.359 19.1037C211.265 19.2571 211.141 19.3807 210.988 19.4744C210.835 19.5653 210.665 19.6108 210.481 19.6108ZM35.312 31.744V36.232H36.92V31.744H35.312ZM40.196 25.456V36.568H41.78V25.456H40.196ZM32.636 32.668C34.712 32.68 37.22 32.668 39.668 32.26L39.596 31.096C37.232 31.384 34.568 31.372 32.456 31.372L32.636 32.668ZM33.416 28.972V30.244H38.912V28.972H33.416ZM33.416 26.044V29.824H35.012V27.304H38.792V26.044H33.416ZM43.5311 34.048V35.344H53.5871V34.048H43.5311ZM47.7431 31.948V34.576H49.3391V31.948H47.7431ZM44.6591 26.176V27.436H50.8751V28.624H44.6831V31.744H46.2671V29.872H52.4591V26.176H44.6591ZM44.6831 31.108V32.392H52.7111V31.108H44.6831ZM61.6621 25.444V36.556H63.2701V25.444H61.6621ZM62.8501 29.692V31H64.8061V29.692H62.8501ZM58.7461 26.596V26.872C58.7461 29.884 57.3661 31.924 54.4501 33.436L55.3381 34.648C59.0341 32.788 60.3061 29.932 60.3061 26.596H58.7461ZM55.0621 26.596V27.88H59.5621V26.596H55.0621ZM73.2532 25.456V36.568H74.8612V25.456H73.2532ZM69.9772 26.608V26.896C69.9772 29.872 68.8252 31.888 65.6332 33.424L66.4612 34.696C70.4092 32.788 71.5612 30.004 71.5612 26.608H69.9772ZM66.2212 26.608V27.868H70.7332V26.608H66.2212ZM76.6363 30.436V31.6H86.7043V30.436H76.6363ZM77.7643 32.152V33.232H83.9323V33.784H77.7883V35.74H79.3723V34.792H85.5043V32.152H77.7643ZM77.7883 35.404V36.484H85.8163V35.404H77.7883ZM77.8723 25.648V26.716H83.9083V27.268H77.8843V29.176H79.4683V28.264H85.4803V25.648H77.8723ZM77.8843 28.84V29.92H85.6843V28.84H77.8843ZM91.7007 28.912V30.184H99.4767V28.912H91.7007ZM90.4647 31.444V32.728H100.521V31.444H90.4647ZM94.6407 32.212V36.568H96.2367V32.212H94.6407ZM91.7007 25.948V29.512H93.2967V25.948H91.7007ZM101.492 31.456V32.728H111.56V31.456H101.492ZM102.752 35.104V36.376H110.588V35.104H102.752ZM102.752 33.34V35.656H104.348V33.34H102.752ZM102.728 25.708V26.92H108.764V27.664H102.74V29.944H104.324V28.792H110.336V25.708H102.728ZM102.74 29.572V30.772H110.552V29.572H102.74ZM118.14 31.744V36.232H119.748V31.744H118.14ZM123.024 25.456V36.568H124.608V25.456H123.024ZM115.464 32.668C117.54 32.68 120.048 32.668 122.496 32.26L122.424 31.096C120.06 31.384 117.396 31.372 115.284 31.372L115.464 32.668ZM116.244 28.972V30.244H121.74V28.972H116.244ZM116.244 26.044V29.824H117.84V27.304H121.62V26.044H116.244ZM131.945 32.212V34.012H133.541V32.212H131.945ZM136.805 25.456V36.568H138.401V25.456H136.805ZM129.377 34.72C131.345 34.72 133.925 34.708 136.337 34.264L136.229 33.112C133.889 33.424 131.201 33.424 129.185 33.436L129.377 34.72ZM129.401 26.68V27.928H136.085V26.68H129.401ZM132.737 28.372C131.117 28.372 129.977 29.212 129.977 30.448C129.977 31.696 131.117 32.536 132.737 32.536C134.381 32.536 135.521 31.696 135.521 30.448C135.521 29.212 134.381 28.372 132.737 28.372ZM132.737 29.572C133.481 29.572 133.997 29.884 133.997 30.448C133.997 31.024 133.481 31.336 132.737 31.336C132.017 31.336 131.501 31.024 131.501 30.448C131.501 29.884 132.017 29.572 132.737 29.572ZM131.945 25.504V27.4H133.541V25.504H131.945ZM143.056 31.156V33.592H144.652V31.156H143.056ZM147.928 25.456V33.868H149.524V25.456H147.928ZM141.52 35.104V36.376H149.764V35.104H141.52ZM141.52 33.076V35.44H143.116V33.076H141.52ZM140.32 31.636C142.324 31.636 144.928 31.576 147.292 31.18L147.196 30.04C144.868 30.34 142.156 30.364 140.128 30.364L140.32 31.636ZM145.828 31.912V33.004H148.276V31.912H145.828ZM143.704 25.84C142.072 25.84 140.932 26.644 140.932 27.82C140.932 29.008 142.072 29.8 143.704 29.8C145.324 29.8 146.464 29.008 146.464 27.82C146.464 26.644 145.324 25.84 143.704 25.84ZM143.704 27.004C144.436 27.004 144.952 27.28 144.952 27.82C144.952 28.36 144.436 28.636 143.704 28.636C142.96 28.636 142.444 28.36 142.444 27.82C142.444 27.28 142.96 27.004 143.704 27.004ZM158.307 25.444V36.556H159.915V25.444H158.307ZM159.495 29.692V31H161.451V29.692H159.495ZM155.391 26.596V26.872C155.391 29.884 154.011 31.924 151.095 33.436L151.983 34.648C155.679 32.788 156.951 29.932 156.951 26.596H155.391ZM151.707 26.596V27.88H156.207V26.596H151.707ZM169.874 25.456V31.432H171.482V25.456H169.874ZM164.09 31.912V36.448H171.482V31.912H169.898V32.944H165.662V31.912H164.09ZM165.662 34.168H169.898V35.176H165.662V34.168ZM165.434 25.912C163.706 25.912 162.41 27.004 162.41 28.54C162.41 30.076 163.706 31.168 165.434 31.168C167.162 31.168 168.446 30.076 168.446 28.54C168.446 27.004 167.162 25.912 165.434 25.912ZM165.434 27.232C166.274 27.232 166.886 27.724 166.886 28.54C166.886 29.368 166.274 29.848 165.434 29.848C164.582 29.848 163.97 29.368 163.97 28.54C163.97 27.724 164.582 27.232 165.434 27.232ZM178.309 25.612C175.765 25.612 174.289 26.284 174.289 27.508C174.289 28.732 175.765 29.404 178.309 29.404C180.841 29.404 182.329 28.732 182.329 27.508C182.329 26.284 180.841 25.612 178.309 25.612ZM178.309 26.776C179.917 26.776 180.673 27.016 180.673 27.508C180.673 28.024 179.917 28.24 178.309 28.24C176.701 28.24 175.945 28.024 175.945 27.508C175.945 27.016 176.701 26.776 178.309 26.776ZM173.281 29.92V31.18H183.325V29.92H173.281ZM174.433 31.804V32.992H180.541V33.556H174.445V35.644H176.017V34.66H182.113V31.804H174.433ZM174.445 35.296V36.496H182.401V35.296H174.445ZM187.085 27.124V28.396H192.401V27.124H187.085ZM189.761 28.888C188.357 28.888 187.325 29.98 187.325 31.54C187.325 33.088 188.357 34.18 189.761 34.18C191.177 34.18 192.197 33.088 192.197 31.54C192.197 29.98 191.177 28.888 189.761 28.888ZM189.761 30.22C190.361 30.22 190.793 30.7 190.793 31.54C190.793 32.38 190.361 32.848 189.761 32.848C189.161 32.848 188.741 32.38 188.741 31.54C188.741 30.7 189.161 30.22 189.761 30.22ZM195.125 25.456V36.568H196.649V25.456H195.125ZM193.793 29.968V31.252H195.629V29.968H193.793ZM192.797 25.66V36.1H194.285V25.66H192.797ZM188.981 25.756V27.928H190.553V25.756H188.981ZM202.252 26.692V27.016C202.252 28.156 201.076 29.404 198.628 29.704L199.216 30.952C202.036 30.568 203.632 28.972 203.632 27.016V26.692H202.252ZM202.708 26.692V27.016C202.708 28.972 204.304 30.568 207.136 30.952L207.712 29.704C205.264 29.404 204.088 28.156 204.088 27.016V26.692H202.708ZM202.336 32.5V36.58H203.92V32.5H202.336ZM198.148 31.588V32.86H208.192V31.588H198.148ZM199.036 26.02V27.28H207.28V26.02H199.036ZM213.555 29.188V30.484H215.391V29.188H213.555ZM211.179 26.416V28.288C211.179 30.172 210.603 32.152 208.971 33.16L209.931 34.36C211.707 33.268 212.403 30.808 212.403 28.288V26.416H211.179ZM211.527 26.416V28.216C211.527 30.616 212.079 33.016 213.843 34.108L214.707 32.86C213.195 31.876 212.727 30.028 212.727 28.216V26.416H211.527ZM217.203 25.456V36.568H218.727V25.456H217.203ZM214.947 25.624V36.064H216.435V25.624H214.947ZM222.434 31.096V34.216H224.018V31.096H222.434ZM226.466 31.096V34.216H228.062V31.096H226.466ZM220.226 33.988V35.284H230.282V33.988H220.226ZM225.242 25.996C222.842 25.996 221.09 27.172 221.09 28.984C221.09 30.796 222.842 31.96 225.242 31.96C227.63 31.96 229.394 30.796 229.394 28.984C229.394 27.172 227.63 25.996 225.242 25.996ZM225.242 27.244C226.79 27.244 227.822 27.88 227.822 28.984C227.822 30.076 226.79 30.724 225.242 30.724C223.694 30.724 222.662 30.076 222.662 28.984C222.662 27.88 223.694 27.244 225.242 27.244ZM232.559 35.6108C232.278 35.6108 232.036 35.5114 231.835 35.3125C231.636 35.1108 231.536 34.8693 231.536 34.5881C231.536 34.3097 231.636 34.071 231.835 33.8722C232.036 33.6733 232.278 33.5739 232.559 33.5739C232.832 33.5739 233.07 33.6733 233.275 33.8722C233.479 34.071 233.582 34.3097 233.582 34.5881C233.582 34.7756 233.533 34.9474 233.437 35.1037C233.343 35.2571 233.219 35.3807 233.066 35.4744C232.913 35.5653 232.744 35.6108 232.559 35.6108Z" fill="#191D21"/>
<path d="M308.667 19.7733L307.727 18.8333L304 22.56L300.273 18.8333L299.333 19.7733L303.06 23.5L299.333 27.2267L300.273 28.1667L304 24.44L307.727 28.1667L308.667 27.2267L304.94 23.5L308.667 19.7733Z" fill="#191D21"/>
</svg>
