<svg width="320" height="47" viewBox="0 0 320 47" fill="none" xmlns="http://www.w3.org/2000/svg">
<rect width="320" height="47" rx="8" fill="#FFCACA"/>
<path d="M8.6665 29.5H23.3332L15.9998 16.8333L8.6665 29.5ZM16.6665 27.5H15.3332V26.1667H16.6665V27.5ZM16.6665 24.8333H15.3332V22.1667H16.6665V24.8333Z" fill="#191D21"/>
<path d="M40.1 9.444V20.592H41.708V9.444H40.1ZM35.72 10.224C34.04 10.224 32.804 11.76 32.804 14.184C32.804 16.632 34.04 18.168 35.72 18.168C37.4 18.168 38.636 16.632 38.636 14.184C38.636 11.76 37.4 10.224 35.72 10.224ZM35.72 11.676C36.548 11.676 37.1 12.552 37.1 14.184C37.1 15.84 36.548 16.728 35.72 16.728C34.892 16.728 34.328 15.84 34.328 14.184C34.328 12.552 34.892 11.676 35.72 11.676ZM44.0711 10.452V17.928H49.4111V10.452H44.0711ZM47.8511 11.7V16.668H45.6431V11.7H47.8511ZM51.1391 9.444V20.592H52.7471V9.444H51.1391ZM64.4395 9.444V20.556H66.0475V9.444H64.4395ZM65.6275 13.692V15H67.5835V13.692H65.6275ZM61.5235 10.596V10.872C61.5235 13.884 60.1435 15.924 57.2275 17.436L58.1155 18.648C61.8115 16.788 63.0835 13.932 63.0835 10.596H61.5235ZM57.8395 10.596V11.88H62.3395V10.596H57.8395ZM76.0065 9.456V15.432H77.6145V9.456H76.0065ZM70.2225 15.912V20.448H77.6145V15.912H76.0305V16.944H71.7945V15.912H70.2225ZM71.7945 18.168H76.0305V19.176H71.7945V18.168ZM71.5665 9.912C69.8385 9.912 68.5425 11.004 68.5425 12.54C68.5425 14.076 69.8385 15.168 71.5665 15.168C73.2945 15.168 74.5785 14.076 74.5785 12.54C74.5785 11.004 73.2945 9.912 71.5665 9.912ZM71.5665 11.232C72.4065 11.232 73.0185 11.724 73.0185 12.54C73.0185 13.368 72.4065 13.848 71.5665 13.848C70.7145 13.848 70.1025 13.368 70.1025 12.54C70.1025 11.724 70.7145 11.232 71.5665 11.232ZM80.3856 12.852V14.124H85.8336V12.852H80.3856ZM82.2936 13.668V15.792H83.8896V13.668H82.2936ZM80.3856 10.128V13.38H81.9816V11.4H85.7616V10.128H80.3856ZM87.0696 9.444V17.808H88.6776V9.444H87.0696ZM81.1536 19.104V20.376H88.9776V19.104H81.1536ZM81.1536 17.22V19.584H82.7496V17.22H81.1536ZM79.6656 16.56C81.7056 16.56 84.2016 16.512 86.5176 16.176L86.4096 15.036C84.1776 15.276 81.5736 15.3 79.4736 15.3L79.6656 16.56ZM96.05 16.212V18.012H97.646V16.212H96.05ZM100.91 9.456V20.568H102.506V9.456H100.91ZM93.482 18.72C95.45 18.72 98.03 18.708 100.442 18.264L100.334 17.112C97.994 17.424 95.306 17.424 93.29 17.436L93.482 18.72ZM93.506 10.68V11.928H100.19V10.68H93.506ZM96.842 12.372C95.222 12.372 94.082 13.212 94.082 14.448C94.082 15.696 95.222 16.536 96.842 16.536C98.486 16.536 99.626 15.696 99.626 14.448C99.626 13.212 98.486 12.372 96.842 12.372ZM96.842 13.572C97.586 13.572 98.102 13.884 98.102 14.448C98.102 15.024 97.586 15.336 96.842 15.336C96.122 15.336 95.606 15.024 95.606 14.448C95.606 13.884 96.122 13.572 96.842 13.572ZM96.05 9.504V11.4H97.646V9.504H96.05ZM107.161 15.156V17.592H108.757V15.156H107.161ZM112.033 9.456V17.868H113.629V9.456H112.033ZM105.625 19.104V20.376H113.869V19.104H105.625ZM105.625 17.076V19.44H107.221V17.076H105.625ZM104.425 15.636C106.429 15.636 109.033 15.576 111.397 15.18L111.301 14.04C108.973 14.34 106.261 14.364 104.233 14.364L104.425 15.636ZM109.933 15.912V17.004H112.381V15.912H109.933ZM107.809 9.84C106.177 9.84 105.037 10.644 105.037 11.82C105.037 13.008 106.177 13.8 107.809 13.8C109.429 13.8 110.569 13.008 110.569 11.82C110.569 10.644 109.429 9.84 107.809 9.84ZM107.809 11.004C108.541 11.004 109.057 11.28 109.057 11.82C109.057 12.36 108.541 12.636 107.809 12.636C107.065 12.636 106.549 12.36 106.549 11.82C106.549 11.28 107.065 11.004 107.809 11.004ZM122.928 9.444V20.592H124.536V9.444H122.928ZM118.548 10.224C116.868 10.224 115.632 11.76 115.632 14.184C115.632 16.632 116.868 18.168 118.548 18.168C120.228 18.168 121.464 16.632 121.464 14.184C121.464 11.76 120.228 10.224 118.548 10.224ZM118.548 11.676C119.376 11.676 119.928 12.552 119.928 14.184C119.928 15.84 119.376 16.728 118.548 16.728C117.72 16.728 117.156 15.84 117.156 14.184C117.156 12.552 117.72 11.676 118.548 11.676ZM130.787 13.548V14.832H132.611V13.548H130.787ZM134.375 9.456V20.568H135.899V9.456H134.375ZM132.107 9.624V20.064H133.607V9.624H132.107ZM128.843 10.236C127.379 10.236 126.443 11.76 126.443 14.268C126.443 16.788 127.379 18.312 128.843 18.312C130.319 18.312 131.267 16.788 131.267 14.268C131.267 11.76 130.319 10.236 128.843 10.236ZM128.843 11.736C129.467 11.736 129.815 12.576 129.815 14.268C129.815 15.972 129.467 16.8 128.843 16.8C128.243 16.8 127.895 15.972 127.895 14.268C127.895 12.576 128.243 11.736 128.843 11.736ZM139.606 15.096V18.216H141.19V15.096H139.606ZM143.638 15.096V18.216H145.234V15.096H143.638ZM137.398 17.988V19.284H147.454V17.988H137.398ZM142.414 9.996C140.014 9.996 138.262 11.172 138.262 12.984C138.262 14.796 140.014 15.96 142.414 15.96C144.802 15.96 146.566 14.796 146.566 12.984C146.566 11.172 144.802 9.996 142.414 9.996ZM142.414 11.244C143.962 11.244 144.994 11.88 144.994 12.984C144.994 14.076 143.962 14.724 142.414 14.724C140.866 14.724 139.834 14.076 139.834 12.984C139.834 11.88 140.866 11.244 142.414 11.244ZM149.731 19.6108C149.45 19.6108 149.208 19.5114 149.006 19.3125C148.808 19.1108 148.708 18.8693 148.708 18.5881C148.708 18.3097 148.808 18.071 149.006 17.8722C149.208 17.6733 149.45 17.5739 149.731 17.5739C150.004 17.5739 150.242 17.6733 150.447 17.8722C150.651 18.071 150.754 18.3097 150.754 18.5881C150.754 18.7756 150.705 18.9474 150.609 19.1037C150.515 19.2571 150.391 19.3807 150.238 19.4744C150.085 19.5653 149.915 19.6108 149.731 19.6108ZM35.312 31.744V36.232H36.92V31.744H35.312ZM40.196 25.456V36.568H41.78V25.456H40.196ZM32.636 32.668C34.712 32.68 37.22 32.668 39.668 32.26L39.596 31.096C37.232 31.384 34.568 31.372 32.456 31.372L32.636 32.668ZM33.416 28.972V30.244H38.912V28.972H33.416ZM33.416 26.044V29.824H35.012V27.304H38.792V26.044H33.416ZM43.5311 34.048V35.344H53.5871V34.048H43.5311ZM47.7431 31.948V34.576H49.3391V31.948H47.7431ZM44.6591 26.176V27.436H50.8751V28.624H44.6831V31.744H46.2671V29.872H52.4591V26.176H44.6591ZM44.6831 31.108V32.392H52.7111V31.108H44.6831ZM61.6621 25.444V36.556H63.2701V25.444H61.6621ZM62.8501 29.692V31H64.8061V29.692H62.8501ZM58.7461 26.596V26.872C58.7461 29.884 57.3661 31.924 54.4501 33.436L55.3381 34.648C59.0341 32.788 60.3061 29.932 60.3061 26.596H58.7461ZM55.0621 26.596V27.88H59.5621V26.596H55.0621ZM73.2532 25.456V36.568H74.8612V25.456H73.2532ZM69.9772 26.608V26.896C69.9772 29.872 68.8252 31.888 65.6332 33.424L66.4612 34.696C70.4092 32.788 71.5612 30.004 71.5612 26.608H69.9772ZM66.2212 26.608V27.868H70.7332V26.608H66.2212ZM76.6363 30.436V31.6H86.7043V30.436H76.6363ZM77.7643 32.152V33.232H83.9323V33.784H77.7883V35.74H79.3723V34.792H85.5043V32.152H77.7643ZM77.7883 35.404V36.484H85.8163V35.404H77.7883ZM77.8723 25.648V26.716H83.9083V27.268H77.8843V29.176H79.4683V28.264H85.4803V25.648H77.8723ZM77.8843 28.84V29.92H85.6843V28.84H77.8843ZM91.7007 28.912V30.184H99.4767V28.912H91.7007ZM90.4647 31.444V32.728H100.521V31.444H90.4647ZM94.6407 32.212V36.568H96.2367V32.212H94.6407ZM91.7007 25.948V29.512H93.2967V25.948H91.7007ZM101.492 31.456V32.728H111.56V31.456H101.492ZM102.752 35.104V36.376H110.588V35.104H102.752ZM102.752 33.34V35.656H104.348V33.34H102.752ZM102.728 25.708V26.92H108.764V27.664H102.74V29.944H104.324V28.792H110.336V25.708H102.728ZM102.74 29.572V30.772H110.552V29.572H102.74ZM118.14 31.744V36.232H119.748V31.744H118.14ZM123.024 25.456V36.568H124.608V25.456H123.024ZM115.464 32.668C117.54 32.68 120.048 32.668 122.496 32.26L122.424 31.096C120.06 31.384 117.396 31.372 115.284 31.372L115.464 32.668ZM116.244 28.972V30.244H121.74V28.972H116.244ZM116.244 26.044V29.824H117.84V27.304H121.62V26.044H116.244ZM129.137 34.048V35.344H139.193V34.048H129.137ZM133.349 31.948V34.576H134.945V31.948H133.349ZM130.265 26.176V27.436H136.481V28.624H130.289V31.744H131.873V29.872H138.065V26.176H130.265ZM130.289 31.108V32.392H138.317V31.108H130.289ZM141.196 26.476V27.736H148.24V26.476H141.196ZM140.176 33.82V35.116H150.22V33.82H140.176ZM147.4 26.476V27.796C147.4 29.296 147.4 30.88 146.992 33.016L148.588 33.148C148.984 30.868 148.984 29.356 148.984 27.796V26.476H147.4ZM158.835 25.468V33.448H160.443V25.468H158.835ZM153.039 35.104V36.376H160.719V35.104H153.039ZM153.039 32.644V35.62H154.635V32.644H153.039ZM154.395 26.164C152.691 26.164 151.371 27.34 151.371 28.984C151.371 30.616 152.691 31.804 154.395 31.804C156.099 31.804 157.407 30.616 157.407 28.984C157.407 27.34 156.099 26.164 154.395 26.164ZM154.395 27.544C155.211 27.544 155.847 28.072 155.847 28.984C155.847 29.884 155.211 30.412 154.395 30.412C153.567 30.412 152.931 29.884 152.931 28.984C152.931 28.072 153.567 27.544 154.395 27.544ZM162.23 27.124V28.396H167.546V27.124H162.23ZM164.906 28.888C163.502 28.888 162.47 29.98 162.47 31.54C162.47 33.088 163.502 34.18 164.906 34.18C166.322 34.18 167.342 33.088 167.342 31.54C167.342 29.98 166.322 28.888 164.906 28.888ZM164.906 30.22C165.506 30.22 165.938 30.7 165.938 31.54C165.938 32.38 165.506 32.848 164.906 32.848C164.306 32.848 163.886 32.38 163.886 31.54C163.886 30.7 164.306 30.22 164.906 30.22ZM170.27 25.456V36.568H171.794V25.456H170.27ZM168.938 29.968V31.252H170.774V29.968H168.938ZM167.942 25.66V36.1H169.43V25.66H167.942ZM164.126 25.756V27.928H165.698V25.756H164.126ZM177.397 26.692V27.016C177.397 28.156 176.221 29.404 173.773 29.704L174.361 30.952C177.181 30.568 178.777 28.972 178.777 27.016V26.692H177.397ZM177.853 26.692V27.016C177.853 28.972 179.449 30.568 182.281 30.952L182.857 29.704C180.409 29.404 179.233 28.156 179.233 27.016V26.692H177.853ZM177.481 32.5V36.58H179.065V32.5H177.481ZM173.293 31.588V32.86H183.337V31.588H173.293ZM174.181 26.02V27.28H182.425V26.02H174.181ZM188.7 29.188V30.484H190.536V29.188H188.7ZM186.324 26.416V28.288C186.324 30.172 185.748 32.152 184.116 33.16L185.076 34.36C186.852 33.268 187.548 30.808 187.548 28.288V26.416H186.324ZM186.672 26.416V28.216C186.672 30.616 187.224 33.016 188.988 34.108L189.852 32.86C188.34 31.876 187.872 30.028 187.872 28.216V26.416H186.672ZM192.348 25.456V36.568H193.872V25.456H192.348ZM190.092 25.624V36.064H191.58V25.624H190.092ZM197.579 31.096V34.216H199.163V31.096H197.579ZM201.611 31.096V34.216H203.207V31.096H201.611ZM195.371 33.988V35.284H205.427V33.988H195.371ZM200.387 25.996C197.987 25.996 196.235 27.172 196.235 28.984C196.235 30.796 197.987 31.96 200.387 31.96C202.775 31.96 204.539 30.796 204.539 28.984C204.539 27.172 202.775 25.996 200.387 25.996ZM200.387 27.244C201.935 27.244 202.967 27.88 202.967 28.984C202.967 30.076 201.935 30.724 200.387 30.724C198.839 30.724 197.807 30.076 197.807 28.984C197.807 27.88 198.839 27.244 200.387 27.244ZM207.703 35.6108C207.422 35.6108 207.181 35.5114 206.979 35.3125C206.78 35.1108 206.681 34.8693 206.681 34.5881C206.681 34.3097 206.78 34.071 206.979 33.8722C207.181 33.6733 207.422 33.5739 207.703 33.5739C207.976 33.5739 208.215 33.6733 208.419 33.8722C208.624 34.071 208.726 34.3097 208.726 34.5881C208.726 34.7756 208.678 34.9474 208.581 35.1037C208.488 35.2571 208.364 35.3807 208.211 35.4744C208.057 35.5653 207.888 35.6108 207.703 35.6108Z" fill="#191D21"/>
<path d="M308.667 19.7733L307.727 18.8333L304 22.56L300.273 18.8333L299.333 19.7733L303.06 23.5L299.333 27.2267L300.273 28.1667L304 24.44L307.727 28.1667L308.667 27.2267L304.94 23.5L308.667 19.7733Z" fill="#191D21"/>
</svg>
