<svg width="current" height="32" viewBox="0 0 399 32" fill="none" xmlns="http://www.w3.org/2000/svg">
<rect width="399" height="32" rx="8" fill="#FFCACA"/>
<path d="M8.66667 22H23.3333L16 9.33333L8.66667 22ZM16.6667 20H15.3333V18.6667H16.6667V20ZM16.6667 17.3333H15.3333V14.6667H16.6667V17.3333Z" fill="#191D21"/>
<path d="M34.136 16.748H41.72V21.092H40.112V18.032H34.136V16.748ZM40.112 9.98H41.72V16.292H40.112V9.98ZM33.116 10.544H34.7V15.128H33.116V10.544ZM33.116 14.408H34.076C35.66 14.408 37.4 14.3 39.212 13.94L39.404 15.236C37.52 15.608 35.72 15.716 34.076 15.716H33.116V14.408ZM43.9391 11.012H45.5231V17.468H43.9391V11.012ZM43.9391 17.06H44.7191C46.0631 17.06 47.1791 17.012 48.4631 16.748L48.6671 18.08C47.3351 18.368 46.1351 18.416 44.7191 18.416H43.9391V17.06ZM51.5711 9.956H53.0951V21.068H51.5711V9.956ZM47.0351 13.46H49.5671V14.744H47.0351V13.46ZM49.2191 10.148H50.7071V20.576H49.2191V10.148ZM62.1901 9.968H63.7981V16.244H62.1901V9.968ZM56.4061 16.748H63.7981V20.948H56.4061V16.748ZM62.2261 17.996H57.9661V19.688H62.2261V17.996ZM57.7501 10.472C59.4781 10.472 60.7621 11.576 60.7621 13.136C60.7621 14.684 59.4781 15.8 57.7501 15.8C56.0221 15.8 54.7261 14.684 54.7261 13.136C54.7261 11.576 56.0221 10.472 57.7501 10.472ZM57.7501 11.792C56.9101 11.792 56.2861 12.284 56.2861 13.136C56.2861 13.976 56.9101 14.468 57.7501 14.468C58.5901 14.468 59.2021 13.976 59.2021 13.136C59.2021 12.284 58.5901 11.792 57.7501 11.792ZM70.6252 10.112C73.1572 10.112 74.6452 10.784 74.6452 12.008C74.6452 13.232 73.1572 13.904 70.6252 13.904C68.0812 13.904 66.6052 13.232 66.6052 12.008C66.6052 10.784 68.0812 10.112 70.6252 10.112ZM70.6252 11.276C69.0172 11.276 68.2612 11.516 68.2612 12.008C68.2612 12.524 69.0172 12.74 70.6252 12.74C72.2332 12.74 72.9892 12.524 72.9892 12.008C72.9892 11.516 72.2332 11.276 70.6252 11.276ZM65.5972 14.42H75.6412V15.68H65.5972V14.42ZM66.7492 16.304H74.4292V19.16H68.3332V20.144H66.7612V18.056H72.8572V17.492H66.7492V16.304ZM66.7612 19.796H74.7172V20.996H66.7612V19.796ZM86.5176 9.944H88.1256V21.092H86.5176V9.944ZM87.7656 14.06H89.7336V15.368H87.7656V14.06ZM79.8456 17.096H80.7816C82.6536 17.096 84.1296 17.036 85.7616 16.748L85.9176 18.068C84.2376 18.368 82.7136 18.416 80.7816 18.416H79.8456V17.096ZM79.8456 10.976H85.0296V12.26H81.4296V17.732H79.8456V10.976ZM90.4527 15.956H100.521V17.228H90.4527V15.956ZM91.7127 19.604H99.5487V20.876H91.7127V19.604ZM91.7127 17.84H93.3087V20.156H91.7127V17.84ZM91.6887 10.208H99.2967V13.292H93.2847V14.444H91.7007V12.164H97.7247V11.42H91.6887V10.208ZM91.7007 14.072H99.5127V15.272H91.7007V14.072ZM111.973 9.956H113.569V17.324H111.973V9.956ZM110.065 12.896H112.201V14.18H110.065V12.896ZM108.313 10.796H109.993C109.993 13.832 108.421 15.812 105.073 16.868L104.401 15.62C107.185 14.792 108.313 13.364 108.313 11.492V10.796ZM104.977 10.796H109.489V12.068H104.977V10.796ZM109.033 16.508H110.389V16.88C110.389 18.92 108.889 20.576 106.177 21.044L105.565 19.784C107.917 19.424 109.033 18.14 109.033 16.88V16.508ZM109.261 16.508H110.617V16.88C110.617 18.128 111.721 19.412 114.085 19.772L113.449 21.032C110.737 20.576 109.261 18.92 109.261 16.88V16.508ZM120.336 10.508C122.676 10.508 124.488 11.792 124.488 13.724C124.488 15.668 122.676 16.94 120.336 16.94C117.996 16.94 116.184 15.668 116.184 13.724C116.184 11.792 117.996 10.508 120.336 10.508ZM120.336 11.804C118.824 11.804 117.744 12.524 117.744 13.724C117.744 14.912 118.824 15.632 120.336 15.632C121.848 15.632 122.928 14.912 122.928 13.724C122.928 12.524 121.848 11.804 120.336 11.804ZM115.32 18.428H125.376V19.736H115.32V18.428ZM126.359 18.548H136.415V19.844H126.359V18.548ZM130.571 16.448H132.167V19.076H130.571V16.448ZM127.487 10.676H135.287V14.372H129.095V16.244H127.511V13.124H133.703V11.936H127.487V10.676ZM127.511 15.608H135.539V16.892H127.511V15.608ZM147.268 9.956H148.876V21.068H147.268V9.956ZM148.516 14.096H150.484V15.416H148.516V14.096ZM140.5 10.832H142.084V13.532H144.316V10.832H145.9V18.5H140.5V10.832ZM142.084 14.768V17.216H144.316V14.768H142.084ZM154.023 15.98H155.631V20.876H154.023V15.98ZM159.027 9.968H160.635V21.08H159.027V9.968ZM151.251 16.436L151.047 15.152C153.243 15.14 155.991 15.104 158.427 14.816L158.523 15.992C156.051 16.376 153.399 16.436 151.251 16.436ZM156.759 17.012H159.291V18.248H156.759V17.012ZM151.659 10.856H153.459V12.14H151.659V10.856ZM153.003 10.856H154.527V11.684C154.527 12.668 154.527 13.904 154.071 15.56L152.571 15.284C153.003 13.712 153.003 12.62 153.003 11.684V10.856ZM155.043 10.856H157.227V12.14H155.043V10.856ZM156.351 10.856H157.875V11.708C157.875 12.704 157.875 13.928 157.443 15.536L155.943 15.248C156.351 13.712 156.351 12.656 156.351 11.708V10.856ZM166.358 11.192H167.738V11.516C167.738 13.472 166.142 15.068 163.322 15.452L162.734 14.204C165.182 13.904 166.358 12.656 166.358 11.516V11.192ZM166.814 11.192H168.194V11.516C168.194 12.656 169.37 13.904 171.818 14.204L171.242 15.452C168.41 15.068 166.814 13.472 166.814 11.516V11.192ZM166.442 17H168.026V21.08H166.442V17ZM162.254 16.088H172.298V17.36H162.254V16.088ZM163.142 10.52H171.386V11.78H163.142V10.52ZM177.661 13.688H179.497V14.984H177.661V13.688ZM175.285 10.916H176.509V12.788C176.509 15.308 175.813 17.768 174.037 18.86L173.077 17.66C174.709 16.652 175.285 14.672 175.285 12.788V10.916ZM175.633 10.916H176.833V12.716C176.833 14.528 177.301 16.376 178.813 17.36L177.949 18.608C176.185 17.516 175.633 15.116 175.633 12.716V10.916ZM181.309 9.956H182.833V21.068H181.309V9.956ZM179.053 10.124H180.541V20.564H179.053V10.124ZM186.54 15.596H188.124V18.716H186.54V15.596ZM190.572 15.596H192.168V18.716H190.572V15.596ZM184.332 18.488H194.388V19.784H184.332V18.488ZM189.348 10.496C191.736 10.496 193.5 11.672 193.5 13.484C193.5 15.296 191.736 16.46 189.348 16.46C186.948 16.46 185.196 15.296 185.196 13.484C185.196 11.672 186.948 10.496 189.348 10.496ZM189.348 11.744C187.8 11.744 186.768 12.38 186.768 13.484C186.768 14.576 187.8 15.224 189.348 15.224C190.896 15.224 191.928 14.576 191.928 13.484C191.928 12.38 190.896 11.744 189.348 11.744ZM196.664 20.1108C196.383 20.1108 196.142 20.0114 195.94 19.8125C195.741 19.6108 195.642 19.3693 195.642 19.0881C195.642 18.8097 195.741 18.571 195.94 18.3722C196.142 18.1733 196.383 18.0739 196.664 18.0739C196.937 18.0739 197.176 18.1733 197.38 18.3722C197.585 18.571 197.687 18.8097 197.687 19.0881C197.687 19.2756 197.639 19.4474 197.542 19.6037C197.449 19.7571 197.325 19.8807 197.172 19.9744C197.018 20.0653 196.849 20.1108 196.664 20.1108Z" fill="#191D21"/>
<path d="M387.667 12.2733L386.727 11.3333L383 15.06L379.273 11.3333L378.333 12.2733L382.06 16L378.333 19.7267L379.273 20.6667L383 16.94L386.727 20.6667L387.667 19.7267L383.94 16L387.667 12.2733Z" fill="#191D21"/>
</svg>
