<svg width="current" height="32" viewBox="0 0 399 32" fill="none" xmlns="http://www.w3.org/2000/svg">
<rect width="399" height="32" rx="8" fill="#FFCACA"/>
<path d="M8.66667 22H23.3333L16 9.33333L8.66667 22ZM16.6667 20H15.3333V18.6667H16.6667V20ZM16.6667 17.3333H15.3333V14.6667H16.6667V17.3333Z" fill="#191D21"/>
<path d="M40.1 9.944H41.708V21.092H40.1V9.944ZM33.032 10.832H34.616V13.532H36.908V10.832H38.492V18.5H33.032V10.832ZM34.616 14.768V17.216H36.908V14.768H34.616ZM44.0831 10.508H49.4711V15.212H44.0831V10.508ZM47.9111 11.756H45.6431V13.964H47.9111V11.756ZM51.1511 9.956H52.7591V15.56H51.1511V9.956ZM45.3431 16.04H52.7591V19.064H46.9271V20.192H45.3551V17.924H51.1751V17.264H45.3431V16.04ZM45.3551 19.76H53.0351V20.996H45.3551V19.76ZM59.8141 12.908H62.6701V14.18H59.8141V12.908ZM62.2621 9.968H63.8581V18.164H62.2621V9.968ZM56.5021 19.604H64.0981V20.876H56.5021V19.604ZM56.5021 17.36H58.1101V20.336H56.5021V17.36ZM55.0261 10.688H56.6101V12.38H58.7221V10.688H60.2821V16.424H55.0261V10.688ZM56.6101 13.592V15.164H58.7221V13.592H56.6101ZM66.0292 11.336H75.1972V12.608H66.0292V11.336ZM65.6092 18.668H75.6652V19.952H65.6092V18.668ZM69.8212 17.204H71.4052V19.172H69.8212V17.204ZM70.6012 13.088C72.9172 13.088 74.3692 13.892 74.3692 15.26C74.3692 16.628 72.9172 17.432 70.6012 17.432C68.2852 17.432 66.8332 16.628 66.8332 15.26C66.8332 13.892 68.2852 13.088 70.6012 13.088ZM70.6012 14.324C69.2092 14.324 68.4652 14.624 68.4652 15.26C68.4652 15.896 69.2092 16.184 70.6012 16.184C71.9932 16.184 72.7372 15.896 72.7372 15.26C72.7372 14.624 71.9932 14.324 70.6012 14.324ZM69.8212 10.076H71.4052V12.128H69.8212V10.076ZM83.6016 10.28H85.0056V10.796C85.0056 12.932 83.3256 14.744 80.4096 15.176L79.7856 13.892C82.3416 13.556 83.6016 12.104 83.6016 10.796V10.28ZM83.9016 10.28H85.2936V10.796C85.2936 12.092 86.5656 13.556 89.1096 13.892L88.4976 15.176C85.5816 14.744 83.9016 12.932 83.9016 10.796V10.28ZM83.6136 17H85.1976V21.068H83.6136V17ZM79.4256 15.992H89.4696V17.288H79.4256V15.992ZM96.4767 12.644H98.5887V13.94H96.4767V12.644ZM98.1567 9.956H99.7527V16.556H98.1567V9.956ZM95.9847 16.796C98.3367 16.796 99.7887 17.6 99.7887 18.944C99.7887 20.3 98.3367 21.08 95.9847 21.08C93.6327 21.08 92.1807 20.3 92.1807 18.944C92.1807 17.6 93.6327 16.796 95.9847 16.796ZM95.9847 18.008C94.5447 18.008 93.7767 18.308 93.7767 18.944C93.7767 19.568 94.5447 19.868 95.9847 19.868C97.4367 19.868 98.2047 19.568 98.2047 18.944C98.2047 18.308 97.4367 18.008 95.9847 18.008ZM93.0207 11.072H94.3167V11.768C94.3167 13.892 93.3327 15.836 91.2087 16.556L90.3927 15.296C92.2287 14.672 93.0207 13.196 93.0207 11.768V11.072ZM93.3567 11.072H94.6407V11.768C94.6407 13.076 95.3967 14.432 97.1487 15.02L96.3687 16.28C94.3047 15.596 93.3567 13.748 93.3567 11.768V11.072ZM90.8247 10.628H96.8007V11.9H90.8247V10.628ZM105.932 14.048H107.756V15.332H105.932V14.048ZM109.52 9.956H111.044V21.068H109.52V9.956ZM107.252 10.124H108.752V20.564H107.252V10.124ZM103.988 10.736C105.464 10.736 106.412 12.26 106.412 14.768C106.412 17.288 105.464 18.812 103.988 18.812C102.524 18.812 101.588 17.288 101.588 14.768C101.588 12.26 102.524 10.736 103.988 10.736ZM103.988 12.236C103.388 12.236 103.04 13.076 103.04 14.768C103.04 16.472 103.388 17.3 103.988 17.3C104.612 17.3 104.96 16.472 104.96 14.768C104.96 13.076 104.612 12.236 103.988 12.236ZM122.94 9.956H124.548V15.572H122.94V9.956ZM117.132 16.064H124.548V19.076H118.716V20.192H117.156V17.924H122.964V17.276H117.132V16.064ZM117.156 19.76H124.824V20.996H117.156V19.76ZM117.912 10.208H119.232V11.048C119.232 13.1 118.2 14.96 116.028 15.62L115.26 14.36C117.12 13.796 117.912 12.404 117.912 11.048V10.208ZM118.236 10.208H119.544V11.048C119.544 12.368 120.324 13.664 122.136 14.18L121.368 15.416C119.232 14.792 118.236 13.052 118.236 11.048V10.208ZM134.375 9.956H135.899V21.068H134.375V9.956ZM133.043 14.216H134.879V15.512H133.043V14.216ZM132.035 10.148H133.523V20.54H132.035V10.148ZM126.431 11.204H131.507V12.476H126.431V11.204ZM126.407 18.548L126.239 17.252C127.619 17.252 129.935 17.216 131.591 16.988L131.699 18.14C129.995 18.512 127.763 18.548 126.407 18.548ZM127.127 12.02H128.555V17.588H127.127V12.02ZM129.383 12.02H130.811V17.588H129.383V12.02ZM145.342 9.968H146.854V16.796H145.342V9.968ZM143.986 12.8H145.762V14.084H143.986V12.8ZM143.05 10.112H144.538V16.688H143.05V10.112ZM137.338 11.024H142.726V12.26H137.338V11.024ZM140.05 12.596C141.442 12.596 142.45 13.388 142.45 14.54C142.45 15.692 141.442 16.484 140.05 16.484C138.658 16.484 137.65 15.692 137.65 14.54C137.65 13.388 138.658 12.596 140.05 12.596ZM140.05 13.748C139.462 13.748 139.066 14.024 139.066 14.54C139.066 15.056 139.462 15.344 140.05 15.344C140.626 15.344 141.022 15.056 141.022 14.54C141.022 14.024 140.626 13.748 140.05 13.748ZM139.246 10.028H140.818V11.9H139.246V10.028ZM140.062 17.156H141.262V17.372C141.262 18.944 140.494 20.372 138.742 20.936L138.01 19.76C139.438 19.34 140.062 18.344 140.062 17.372V17.156ZM140.482 17.156H141.622V17.372C141.622 18.356 142.15 19.376 143.482 19.868L142.846 21.044C141.118 20.444 140.482 18.896 140.482 17.372V17.156ZM144.07 17.156H145.21V17.372C145.21 18.8 144.562 20.42 142.846 21.044L142.222 19.868C143.518 19.328 144.07 18.272 144.07 17.372V17.156ZM144.466 17.156H145.654V17.372C145.654 18.404 146.266 19.376 147.718 19.76L146.974 20.936C145.198 20.396 144.466 19.004 144.466 17.372V17.156ZM151.473 10.724C153.129 10.724 154.341 12.26 154.341 14.684C154.341 17.132 153.129 18.668 151.473 18.668C149.805 18.668 148.605 17.132 148.605 14.684C148.605 12.26 149.805 10.724 151.473 10.724ZM151.473 12.176C150.669 12.176 150.129 13.052 150.129 14.684C150.129 16.34 150.669 17.228 151.473 17.228C152.289 17.228 152.817 16.34 152.817 14.684C152.817 13.052 152.289 12.176 151.473 12.176ZM156.165 9.944H157.749V21.092H156.165V9.944ZM153.873 13.952H156.837V15.236H153.873V13.952ZM161.684 15.596H163.268V18.716H161.684V15.596ZM165.716 15.596H167.312V18.716H165.716V15.596ZM159.476 18.488H169.532V19.784H159.476V18.488ZM164.492 10.496C166.88 10.496 168.644 11.672 168.644 13.484C168.644 15.296 166.88 16.46 164.492 16.46C162.092 16.46 160.34 15.296 160.34 13.484C160.34 11.672 162.092 10.496 164.492 10.496ZM164.492 11.744C162.944 11.744 161.912 12.38 161.912 13.484C161.912 14.576 162.944 15.224 164.492 15.224C166.04 15.224 167.072 14.576 167.072 13.484C167.072 12.38 166.04 11.744 164.492 11.744ZM171.809 20.1108C171.528 20.1108 171.286 20.0114 171.085 19.8125C170.886 19.6108 170.786 19.3693 170.786 19.0881C170.786 18.8097 170.886 18.571 171.085 18.3722C171.286 18.1733 171.528 18.0739 171.809 18.0739C172.082 18.0739 172.32 18.1733 172.525 18.3722C172.729 18.571 172.832 18.8097 172.832 19.0881C172.832 19.2756 172.783 19.4474 172.687 19.6037C172.593 19.7571 172.469 19.8807 172.316 19.9744C172.163 20.0653 171.994 20.1108 171.809 20.1108ZM183.549 9.944H185.157V21.092H183.549V9.944ZM184.797 14.06H186.765V15.368H184.797V14.06ZM176.877 17.096H177.813C179.685 17.096 181.161 17.036 182.793 16.748L182.949 18.068C181.269 18.368 179.745 18.416 177.813 18.416H176.877V17.096ZM176.877 10.976H182.061V12.26H178.461V17.732H176.877V10.976ZM190.196 10.808H191.492V12.428C191.492 15.284 190.508 17.864 188.3 18.884L187.352 17.564C189.284 16.724 190.196 14.588 190.196 12.428V10.808ZM190.508 10.808H191.804V12.428C191.804 14.48 192.68 16.52 194.576 17.336L193.64 18.62C191.492 17.636 190.508 15.164 190.508 12.428V10.808ZM195.104 9.944H196.712V21.092H195.104V9.944ZM204.012 10.808H205.308V12.428C205.308 15.284 204.324 17.864 202.116 18.884L201.168 17.564C203.1 16.724 204.012 14.588 204.012 12.428V10.808ZM204.324 10.808H205.62V12.428C205.62 14.48 206.496 16.52 208.392 17.336L207.456 18.62C205.308 17.636 204.324 15.164 204.324 12.428V10.808ZM208.92 9.944H210.528V21.092H208.92V9.944ZM213.515 14.912H221.327V16.184H213.515V14.912ZM212.351 18.512H222.407V19.82H212.351V18.512ZM216.563 15.488H218.159V18.932H216.563V15.488ZM213.515 10.712H221.243V11.996H215.111V15.464H213.515V10.712ZM223.366 11.624H228.682V12.896H223.366V11.624ZM226.042 13.388C227.458 13.388 228.478 14.48 228.478 16.04C228.478 17.588 227.458 18.68 226.042 18.68C224.638 18.68 223.606 17.588 223.606 16.04C223.606 14.48 224.638 13.388 226.042 13.388ZM226.042 14.72C225.442 14.72 225.022 15.2 225.022 16.04C225.022 16.88 225.442 17.348 226.042 17.348C226.642 17.348 227.074 16.88 227.074 16.04C227.074 15.2 226.642 14.72 226.042 14.72ZM231.406 9.956H232.93V21.068H231.406V9.956ZM230.074 14.468H231.91V15.752H230.074V14.468ZM229.078 10.16H230.566V20.6H229.078V10.16ZM225.262 10.256H226.834V12.428H225.262V10.256ZM238.534 11.192H239.914V11.516C239.914 13.472 238.318 15.068 235.498 15.452L234.91 14.204C237.358 13.904 238.534 12.656 238.534 11.516V11.192ZM238.99 11.192H240.37V11.516C240.37 12.656 241.546 13.904 243.994 14.204L243.418 15.452C240.586 15.068 238.99 13.472 238.99 11.516V11.192ZM238.618 17H240.202V21.08H238.618V17ZM234.43 16.088H244.474V17.36H234.43V16.088ZM235.318 10.52H243.562V11.78H235.318V10.52ZM249.837 13.688H251.673V14.984H249.837V13.688ZM247.461 10.916H248.685V12.788C248.685 15.308 247.989 17.768 246.213 18.86L245.253 17.66C246.885 16.652 247.461 14.672 247.461 12.788V10.916ZM247.809 10.916H249.009V12.716C249.009 14.528 249.477 16.376 250.989 17.36L250.125 18.608C248.361 17.516 247.809 15.116 247.809 12.716V10.916ZM253.485 9.956H255.009V21.068H253.485V9.956ZM251.229 10.124H252.717V20.564H251.229V10.124ZM258.716 15.596H260.3V18.716H258.716V15.596ZM262.748 15.596H264.344V18.716H262.748V15.596ZM256.508 18.488H266.564V19.784H256.508V18.488ZM261.524 10.496C263.912 10.496 265.676 11.672 265.676 13.484C265.676 15.296 263.912 16.46 261.524 16.46C259.124 16.46 257.372 15.296 257.372 13.484C257.372 11.672 259.124 10.496 261.524 10.496ZM261.524 11.744C259.976 11.744 258.944 12.38 258.944 13.484C258.944 14.576 259.976 15.224 261.524 15.224C263.072 15.224 264.104 14.576 264.104 13.484C264.104 12.38 263.072 11.744 261.524 11.744ZM268.84 20.1108C268.559 20.1108 268.317 20.0114 268.116 19.8125C267.917 19.6108 267.817 19.3693 267.817 19.0881C267.817 18.8097 267.917 18.571 268.116 18.3722C268.317 18.1733 268.559 18.0739 268.84 18.0739C269.113 18.0739 269.352 18.1733 269.556 18.3722C269.761 18.571 269.863 18.8097 269.863 19.0881C269.863 19.2756 269.815 19.4474 269.718 19.6037C269.624 19.7571 269.501 19.8807 269.347 19.9744C269.194 20.0653 269.025 20.1108 268.84 20.1108Z" fill="#191D21"/>
<path d="M387.667 12.2733L386.727 11.3333L383 15.06L379.273 11.3333L378.333 12.2733L382.06 16L378.333 19.7267L379.273 20.6667L383 16.94L386.727 20.6667L387.667 19.7267L383.94 16L387.667 12.2733Z" fill="#191D21"/>
</svg>
